<?xml version="1.0" encoding="UTF-8" standalone="no"?>
<!-- Created with Inkscape (http://www.inkscape.org/) -->

<svg
   xmlns:dc="http://purl.org/dc/elements/1.1/"
   xmlns:cc="http://creativecommons.org/ns#"
   xmlns:rdf="http://www.w3.org/1999/02/22-rdf-syntax-ns#"
   xmlns:svg="http://www.w3.org/2000/svg"
   xmlns="http://www.w3.org/2000/svg"
   xmlns:sodipodi="http://sodipodi.sourceforge.net/DTD/sodipodi-0.dtd"
   xmlns:inkscape="http://www.inkscape.org/namespaces/inkscape"
   width="7.1142902mm"
   height="7.64398mm"
   viewBox="0 0 7.1142902 7.64398"
   version="1.1"
   id="svg4798"
   inkscape:version="0.92.1 r"
   sodipodi:docname="coins.svg">
  <defs
     id="defs4792" />
  <sodipodi:namedview
     id="base"
     pagecolor="#ffffff"
     bordercolor="#666666"
     borderopacity="1.0"
     inkscape:pageopacity="0.0"
     inkscape:pageshadow="2"
     inkscape:zoom="3.959798"
     inkscape:cx="-12.043255"
     inkscape:cy="-7.0447741"
     inkscape:document-units="mm"
     inkscape:current-layer="layer1"
     showgrid="false"
     fit-margin-top="0"
     fit-margin-left="0"
     fit-margin-right="0"
     fit-margin-bottom="0"
     inkscape:window-width="1920"
     inkscape:window-height="1023"
     inkscape:window-x="0"
     inkscape:window-y="33"
     inkscape:window-maximized="1" />
  <metadata
     id="metadata4795">
    <rdf:RDF>
      <cc:Work
         rdf:about="">
        <dc:format>image/svg+xml</dc:format>
        <dc:type
           rdf:resource="http://purl.org/dc/dcmitype/StillImage" />
        <dc:title></dc:title>
      </cc:Work>
    </rdf:RDF>
  </metadata>
  <g
     inkscape:label="Layer 1"
     inkscape:groupmode="layer"
     id="layer1"
     transform="translate(-53.139285,-91.716697)">
    <path
       inkscape:connector-curvature="0"
       style="color:#000000;font-style:normal;font-variant:normal;font-weight:normal;font-stretch:normal;font-size:medium;line-height:normal;font-family:sans-serif;font-variant-ligatures:normal;font-variant-position:normal;font-variant-caps:normal;font-variant-numeric:normal;font-variant-alternates:normal;font-feature-settings:normal;text-indent:0;text-align:start;text-decoration:none;text-decoration-line:none;text-decoration-style:solid;text-decoration-color:#000000;letter-spacing:normal;word-spacing:normal;text-transform:none;writing-mode:lr-tb;direction:ltr;text-orientation:mixed;dominant-baseline:auto;baseline-shift:baseline;text-anchor:start;white-space:normal;shape-padding:0;clip-rule:nonzero;display:inline;overflow:visible;visibility:visible;opacity:1;isolation:auto;mix-blend-mode:normal;color-interpolation:sRGB;color-interpolation-filters:linearRGB;solid-color:#000000;solid-opacity:1;vector-effect:none;fill:#000000;fill-opacity:1;fill-rule:nonzero;stroke:none;stroke-width:0.5;stroke-linecap:butt;stroke-linejoin:miter;stroke-miterlimit:4;stroke-dasharray:none;stroke-dashoffset:0;stroke-opacity:1;color-rendering:auto;image-rendering:auto;shape-rendering:auto;text-rendering:auto;enable-background:accumulate"
       d="m 56.034715,91.716697 c -0.76441,0 -1.45802,0.15178 -1.98231,0.41393 -0.5243,0.26215 -0.91312,0.65972 -0.91312,1.16014 v 1.3224 c 0,0.47881 0.35752,0.8601 0.84749,1.12189 -0.19627,0.20837 -0.31781,0.45314 -0.31781,0.73071 v 1.3224 c 0,0.50042 0.38831,0.89592 0.91261,1.15807 0.52429,0.26214 1.2179,0.41444 1.9823,0.41444 0.76441,0 1.4575,-0.1523 1.98179,-0.41444 0.5243,-0.26215 0.91416,-0.65765 0.91416,-1.15807 v -0.49558 c 0.4618,-0.26067 0.79375,-0.63106 0.79375,-1.09192 v -1.3224 c 0,-0.50042 -0.38934,-0.89799 -0.91364,-1.16014 -0.1269,-0.0634 -0.26393,-0.12008 -0.40928,-0.17001 v -0.25735 c 0,-0.50042 -0.38934,-0.89799 -0.91364,-1.16014 -0.52429,-0.26215 -1.2179,-0.41393 -1.9823,-0.41393 z m 0,0.50023 c 0.69685,0 1.32627,0.14457 1.75958,0.36122 0.43331,0.21665 0.63665,0.48242 0.63665,0.71262 0,0.2302 -0.20334,0.49441 -0.63665,0.71107 -0.43331,0.21665 -1.06273,0.36121 -1.75958,0.36121 -0.69685,0 -1.32473,-0.14456 -1.75804,-0.36121 -0.4333,-0.21666 -0.63665,-0.48087 -0.63665,-0.71107 0,-0.2302 0.20335,-0.49597 0.63665,-0.71262 0.43331,-0.21665 1.06119,-0.36122 1.75804,-0.36122 z m 2.89594,1.86552 c 0.0653,0.0264 0.12807,0.054 0.18656,0.0832 0.4333,0.21665 0.63665,0.48242 0.63665,0.71262 0,0.2302 -0.20335,0.49441 -0.63665,0.71107 -0.38262,0.1913 -0.91841,0.32602 -1.51826,0.35501 0.14852,-0.0507 0.28868,-0.10842 0.41806,-0.17311 0.5243,-0.26215 0.91365,-0.65765 0.91364,-1.15807 z m -0.49971,0.10439 v 0.42633 c 0,0.2302 -0.20334,0.49441 -0.63665,0.71107 -0.43331,0.21665 -1.06273,0.36121 -1.75958,0.36121 -0.69685,0 -1.32473,-0.14456 -1.75804,-0.36121 -0.4333,-0.21666 -0.63665,-0.48087 -0.63665,-0.71107 v -0.4253 c 0.12268,0.0974 0.26081,0.1857 0.41238,0.26148 0.52429,0.26215 1.2179,0.41393 1.98231,0.41393 0.7644,0 1.45801,-0.15178 1.9823,-0.41393 0.15218,-0.0761 0.29067,-0.16464 0.41393,-0.26251 z m 1.32292,1.5875 v 0.42633 c 0,0.2302 -0.20335,0.49441 -0.63665,0.71107 -0.43331,0.21665 -1.06274,0.36121 -1.75959,0.36121 -0.69685,0 -1.32472,-0.14456 -1.75803,-0.36121 -0.43331,-0.21666 -0.63665,-0.48087 -0.63665,-0.71107 v -0.12247 c 0.23191,0.0486 0.47888,0.0807 0.73535,0.0961 1.5e-4,6e-5 3.7e-4,-5e-5 5.3e-4,0 0.47287,0.17592 1.04197,0.27647 1.65882,0.27647 0.7644,0 1.45801,-0.15178 1.9823,-0.41393 0.15217,-0.0761 0.29067,-0.16464 0.41393,-0.26251 z m -5.29115,0.19844 v 0.22789 c 0,0.50042 0.38831,0.89592 0.91261,1.15807 0.0399,0.0199 0.0823,0.0382 0.12402,0.0568 -0.26146,-0.0616 -0.49906,-0.14153 -0.6935,-0.23874 -0.43331,-0.21666 -0.63665,-0.48087 -0.63665,-0.71107 0,-0.1568 0.0964,-0.32995 0.29352,-0.49299 z m 2.81171,0.0656 c -0.0218,0.005 -0.0436,0.0109 -0.0656,0.016 0.022,-0.005 0.0439,-0.0106 0.0656,-0.016 z m -0.77101,0.12609 c -0.0311,0.003 -0.0621,0.005 -0.0935,0.007 0.0313,-0.002 0.0625,-0.005 0.0935,-0.007 z m -2.33422,1.19838 c 0.12268,0.0974 0.26081,0.1857 0.41238,0.26148 0.52429,0.26215 1.2179,0.41393 1.9823,0.41393 0.73387,0 1.40049,-0.1408 1.91668,-0.38395 0.16844,-0.0374 0.32846,-0.0835 0.47956,-0.13695 v 0.27079 c 0,0.2302 -0.20335,0.49441 -0.63665,0.71107 -0.43331,0.21665 -1.06274,0.36121 -1.75959,0.36121 -0.69685,0 -1.32472,-0.14456 -1.75803,-0.36121 -0.43331,-0.21666 -0.63665,-0.48087 -0.63665,-0.71107 z"
       id="path4527" />
  </g>
</svg>
