<?xml version="1.0" encoding="UTF-8" standalone="no"?>
<!-- Created with Inkscape (http://www.inkscape.org/) -->

<svg
   xmlns:dc="http://purl.org/dc/elements/1.1/"
   xmlns:cc="http://creativecommons.org/ns#"
   xmlns:rdf="http://www.w3.org/1999/02/22-rdf-syntax-ns#"
   xmlns:svg="http://www.w3.org/2000/svg"
   xmlns="http://www.w3.org/2000/svg"
   xmlns:sodipodi="http://sodipodi.sourceforge.net/DTD/sodipodi-0.dtd"
   xmlns:inkscape="http://www.inkscape.org/namespaces/inkscape"
   width="210mm"
   height="297mm"
   viewBox="0 0 210 297"
   version="1.1"
   id="svg8"
   inkscape:version="0.92.1 r"
   sodipodi:docname="drawing.svg">
  <defs
     id="defs2" />
  <sodipodi:namedview
     id="base"
     pagecolor="#ffffff"
     bordercolor="#666666"
     borderopacity="1.0"
     inkscape:pageopacity="0.0"
     inkscape:pageshadow="2"
     inkscape:zoom="4"
     inkscape:cx="86.025942"
     inkscape:cy="1059.4525"
     inkscape:document-units="mm"
     inkscape:current-layer="layer1"
     showgrid="true"
     inkscape:snap-nodes="true"
     inkscape:snap-global="true"
     inkscape:snap-others="true"
     inkscape:snap-grids="false"
     inkscape:snap-bbox="true"
     inkscape:bbox-nodes="true"
     inkscape:snap-object-midpoints="false"
     inkscape:snap-bbox-midpoints="false"
     inkscape:snap-smooth-nodes="true"
     inkscape:object-paths="true"
     inkscape:snap-bbox-edge-midpoints="false"
     inkscape:snap-text-baseline="true"
     inkscape:bbox-paths="true"
     inkscape:window-width="1920"
     inkscape:window-height="1023"
     inkscape:window-x="0"
     inkscape:window-y="33"
     inkscape:window-maximized="1">
    <inkscape:grid
       type="xygrid"
       id="grid4485" />
  </sodipodi:namedview>
  <metadata
     id="metadata5">
    <rdf:RDF>
      <cc:Work
         rdf:about="">
        <dc:format>image/svg+xml</dc:format>
        <dc:type
           rdf:resource="http://purl.org/dc/dcmitype/StillImage" />
        <dc:title />
      </cc:Work>
    </rdf:RDF>
  </metadata>
  <g
     inkscape:label="Layer 1"
     inkscape:groupmode="layer"
     id="layer1">
    <path
       style="color:#000000;font-style:normal;font-variant:normal;font-weight:normal;font-stretch:normal;font-size:medium;line-height:normal;font-family:sans-serif;font-variant-ligatures:normal;font-variant-position:normal;font-variant-caps:normal;font-variant-numeric:normal;font-variant-alternates:normal;font-feature-settings:normal;text-indent:0;text-align:start;text-decoration:none;text-decoration-line:none;text-decoration-style:solid;text-decoration-color:#000000;letter-spacing:normal;word-spacing:normal;text-transform:none;writing-mode:lr-tb;direction:ltr;text-orientation:mixed;dominant-baseline:auto;baseline-shift:baseline;text-anchor:start;white-space:normal;shape-padding:0;clip-rule:nonzero;display:inline;overflow:visible;visibility:visible;opacity:1;isolation:auto;mix-blend-mode:normal;color-interpolation:sRGB;color-interpolation-filters:linearRGB;solid-color:#000000;solid-opacity:1;vector-effect:none;fill:#000000;fill-opacity:1;fill-rule:nonzero;stroke:none;stroke-width:1.88976383;stroke-linecap:butt;stroke-linejoin:miter;stroke-miterlimit:4;stroke-dasharray:none;stroke-dashoffset:0;stroke-opacity:1;color-rendering:auto;image-rendering:auto;shape-rendering:auto;text-rendering:auto;enable-background:accumulate"
       d="M 92.998047 49.074219 C 90.108957 49.074219 87.487451 49.647876 85.505859 50.638672 C 83.524268 51.629467 82.054688 53.132075 82.054688 55.023438 L 82.054688 60.021484 C 82.054688 61.831178 83.405957 63.272258 85.257812 64.261719 C 84.515999 65.04925 84.056641 65.974343 84.056641 67.023438 L 84.056641 72.021484 C 84.056641 73.912847 85.524264 75.407642 87.505859 76.398438 C 89.487451 77.38923 92.108957 77.964844 94.998047 77.964844 C 97.887133 77.964844 100.50669 77.38923 102.48828 76.398438 C 104.46988 75.407642 105.94336 73.912847 105.94336 72.021484 L 105.94336 70.148438 C 107.68874 69.163207 108.94337 67.76331 108.94336 66.021484 L 108.94336 61.023438 C 108.94336 59.132075 107.47183 57.629467 105.49023 56.638672 C 105.01059 56.398848 104.49271 56.184819 103.94336 55.996094 L 103.94336 55.023438 C 103.94336 53.132075 102.47184 51.629467 100.49023 50.638672 C 98.508647 49.647876 95.887137 49.074219 92.998047 49.074219 z M 92.998047 50.964844 C 95.631807 50.964844 98.010749 51.511228 99.648438 52.330078 C 101.28613 53.148924 102.05469 54.153379 102.05469 55.023438 C 102.05469 55.8935 101.28613 56.892092 99.648438 57.710938 C 98.010749 58.529783 95.631807 59.076172 92.998047 59.076172 C 90.364287 59.076172 87.991204 58.529783 86.353516 57.710938 C 84.715816 56.892092 83.947266 55.8935 83.947266 55.023438 C 83.947266 54.153379 84.715816 53.148924 86.353516 52.330078 C 87.991204 51.511228 90.364287 50.964844 92.998047 50.964844 z M 103.94336 58.015625 C 104.19022 58.11555 104.42739 58.219552 104.64844 58.330078 C 106.28613 59.148924 107.05469 60.153379 107.05469 61.023438 C 107.05469 61.893498 106.28613 62.892092 104.64844 63.710938 C 103.20233 64.433991 101.17729 64.943163 98.910156 65.052734 C 99.471492 64.861212 100.00124 64.642937 100.49023 64.398438 C 102.47184 63.407649 103.94337 61.912847 103.94336 60.021484 L 103.94336 58.015625 z M 102.05469 58.410156 L 102.05469 60.021484 C 102.05469 60.891547 101.28613 61.890135 99.648438 62.708984 C 98.010749 63.527834 95.631807 64.074219 92.998047 64.074219 C 90.364287 64.074219 87.991204 63.527834 86.353516 62.708984 C 84.715816 61.890135 83.947266 60.891547 83.947266 60.021484 L 83.947266 58.414062 C 84.410946 58.782188 84.933008 59.11592 85.505859 59.402344 C 87.487451 60.393139 90.108957 60.966797 92.998047 60.966797 C 95.887137 60.966797 98.508647 60.393139 100.49023 59.402344 C 101.06537 59.114797 101.58881 58.780062 102.05469 58.410156 z M 107.05469 64.410156 L 107.05469 66.021484 C 107.05469 66.891547 106.28613 67.890135 104.64844 68.708984 C 103.01075 69.527834 100.63181 70.074219 97.998047 70.074219 C 95.364287 70.074219 92.991208 69.527834 91.353516 68.708984 C 89.715816 67.890135 88.947266 66.891547 88.947266 66.021484 L 88.947266 65.558594 C 89.823779 65.742282 90.757219 65.863684 91.726562 65.921875 C 91.727127 65.922085 91.727951 65.921665 91.728516 65.921875 C 93.51575 66.586749 95.666659 66.966797 97.998047 66.966797 C 100.88714 66.966797 103.50864 66.393139 105.49023 65.402344 C 106.06537 65.114797 106.58881 64.780062 107.05469 64.410156 z M 87.056641 65.160156 L 87.056641 66.021484 C 87.056641 67.912847 88.524268 69.407649 90.505859 70.398438 C 90.656509 70.473761 90.816726 70.542825 90.974609 70.613281 C 89.986423 70.380344 89.0884 70.078377 88.353516 69.710938 C 86.71582 68.892092 85.947266 67.893497 85.947266 67.023438 C 85.947266 66.430796 86.311683 65.776377 87.056641 65.160156 z M 97.683594 65.408203 C 97.601387 65.428824 97.518824 65.449218 97.435547 65.46875 C 97.518825 65.449237 97.601389 65.428806 97.683594 65.408203 z M 94.769531 65.884766 C 94.652128 65.894736 94.534647 65.904116 94.416016 65.912109 C 94.53444 65.904138 94.652325 65.894703 94.769531 65.884766 z M 85.947266 70.414062 C 86.410949 70.782188 86.933008 71.115916 87.505859 71.402344 C 89.487451 72.393139 92.108957 72.966797 94.998047 72.966797 C 97.771734 72.966797 100.29124 72.434613 102.24219 71.515625 C 102.87879 71.374402 103.48362 71.2 104.05469 70.998047 L 104.05469 72.021484 C 104.05469 72.891543 103.28613 73.890135 101.64844 74.708984 C 100.01075 75.52783 97.631807 76.074219 94.998047 76.074219 C 92.364283 76.074219 89.991208 75.52783 88.353516 74.708984 C 86.71582 73.890135 85.947266 72.891543 85.947266 72.021484 L 85.947266 70.414062 z "
       transform="scale(0.26458333)"
       id="path4527" />
    <path
       style="color:#000000;font-style:normal;font-variant:normal;font-weight:normal;font-stretch:normal;font-size:medium;line-height:normal;font-family:sans-serif;font-variant-ligatures:normal;font-variant-position:normal;font-variant-caps:normal;font-variant-numeric:normal;font-variant-alternates:normal;font-feature-settings:normal;text-indent:0;text-align:start;text-decoration:none;text-decoration-line:none;text-decoration-style:solid;text-decoration-color:#000000;letter-spacing:normal;word-spacing:normal;text-transform:none;writing-mode:lr-tb;direction:ltr;text-orientation:mixed;dominant-baseline:auto;baseline-shift:baseline;text-anchor:start;white-space:normal;shape-padding:0;clip-rule:nonzero;display:inline;overflow:visible;visibility:visible;opacity:1;isolation:auto;mix-blend-mode:normal;color-interpolation:sRGB;color-interpolation-filters:linearRGB;solid-color:#000000;solid-opacity:1;vector-effect:none;fill:#000000;fill-opacity:1;fill-rule:nonzero;stroke:none;stroke-width:1.88976383;stroke-linecap:butt;stroke-linejoin:miter;stroke-miterlimit:4;stroke-dasharray:none;stroke-dashoffset:0;stroke-opacity:1;color-rendering:auto;image-rendering:auto;shape-rendering:auto;text-rendering:auto;enable-background:accumulate"
       d="M 139.94336 88.183594 C 137.05427 88.183594 134.43276 88.757251 132.45117 89.748047 C 130.46958 90.738842 129.00195 92.24145 129.00195 94.132812 L 129.00195 99.130859 C 129.00195 101.02222 130.46958 102.51702 132.45117 103.50781 C 134.43276 104.49861 137.05427 105.07422 139.94336 105.07422 C 142.83245 105.07422 145.45396 104.49861 147.43555 103.50781 C 149.41715 102.51702 150.89063 101.02222 150.89062 99.130859 L 150.89062 94.132812 C 150.89062 92.24145 149.41715 90.738842 147.43555 89.748047 C 145.45396 88.757251 142.83245 88.183594 139.94336 88.183594 z M 139.94336 90.074219 C 142.57712 90.074219 144.95606 90.620603 146.59375 91.439453 C 148.23144 92.258299 149 93.262754 149 94.132812 C 149 95.002875 148.23144 96.001467 146.59375 96.820312 C 144.95606 97.639158 142.57712 98.185547 139.94336 98.185547 C 137.3096 98.185547 134.93652 97.639158 133.29883 96.820312 C 131.66113 96.001467 130.89258 95.002875 130.89258 94.132812 C 130.89258 93.262754 131.66113 92.258299 133.29883 91.439453 C 134.93652 90.620603 137.3096 90.074219 139.94336 90.074219 z M 149 97.519531 L 149 99.130859 C 149 100.00092 148.23144 100.99951 146.59375 101.81836 C 144.95606 102.63721 142.57712 103.18359 139.94336 103.18359 C 137.3096 103.18359 134.93652 102.63721 133.29883 101.81836 C 131.66113 100.99951 130.89258 100.00092 130.89258 99.130859 L 130.89258 97.523438 C 131.35626 97.891563 131.87832 98.225295 132.45117 98.511719 C 134.43276 99.502514 137.05427 100.07617 139.94336 100.07617 C 142.83245 100.07617 145.45396 99.502514 147.43555 98.511719 C 148.01068 98.224172 148.53412 97.889437 149 97.519531 z "
       transform="scale(0.26458333)"
       id="path4527-6" />
    <path
       style="color:#000000;font-style:normal;font-variant:normal;font-weight:normal;font-stretch:normal;font-size:medium;line-height:normal;font-family:sans-serif;font-variant-ligatures:normal;font-variant-position:normal;font-variant-caps:normal;font-variant-numeric:normal;font-variant-alternates:normal;font-feature-settings:normal;text-indent:0;text-align:start;text-decoration:none;text-decoration-line:none;text-decoration-style:solid;text-decoration-color:#000000;letter-spacing:normal;word-spacing:normal;text-transform:none;writing-mode:lr-tb;direction:ltr;text-orientation:mixed;dominant-baseline:auto;baseline-shift:baseline;text-anchor:start;white-space:normal;shape-padding:0;clip-rule:nonzero;display:inline;overflow:visible;visibility:visible;opacity:1;isolation:auto;mix-blend-mode:normal;color-interpolation:sRGB;color-interpolation-filters:linearRGB;solid-color:#000000;solid-opacity:1;vector-effect:none;fill:#000000;fill-opacity:1;fill-rule:nonzero;stroke:none;stroke-width:1.88976383;stroke-linecap:round;stroke-linejoin:round;stroke-miterlimit:4;stroke-dasharray:none;stroke-dashoffset:0;stroke-opacity:1;color-rendering:auto;image-rendering:auto;shape-rendering:auto;text-rendering:auto;enable-background:accumulate"
       d="M 183.24805 48.287109 C 182.44988 48.30681 181.66021 48.550036 180.97461 48.986328 C 179.93568 49.647464 179.15126 50.827139 179.07031 52.279297 A 0.94609942 0.94609942 0 0 0 179.38477 53.251953 A 0.94497638 0.94497638 0 0 0 179.40234 53.267578 A 0.94609942 0.94609942 0 0 0 179.40625 53.269531 A 0.94497638 0.94497638 0 0 0 180.15625 53.466797 L 185.39258 53.466797 C 185.2606 54.419661 184.89274 55.626651 184.15625 57.099609 L 179.1582 67.09375 C 177.85186 69.706435 177.45443 71.763251 177.74023 73.382812 C 178.02604 75.00237 179.08792 76.130868 180.32422 76.542969 C 180.66156 76.655415 181.00897 76.71755 181.35742 76.740234 A 0.94591962 0.94591962 0 0 0 181.52734 76.75 L 181.68164 76.75 C 181.71222 76.74965 181.74288 76.751005 181.77344 76.75 L 196.46875 76.75 L 196.46875 76.753906 C 197.36248 76.789386 198.25645 76.536918 199.02344 76.048828 C 200.06846 75.383814 200.85662 74.199668 200.92969 72.736328 A 0.94497638 0.94497638 0 0 0 200.86328 72.113281 C 200.86034 72.106414 200.8566 72.100486 200.85352 72.09375 A 0.94497638 0.94497638 0 0 0 200.67969 71.855469 C 200.65406 71.829634 200.62993 71.805373 200.60156 71.783203 A 0.94497638 0.94497638 0 0 0 200.37305 71.648438 C 200.35526 71.64146 200.33849 71.634843 200.32031 71.628906 A 0.94497638 0.94497638 0 0 0 199.99805 71.574219 L 194.66211 71.574219 C 194.76168 70.636625 195.08374 69.459451 195.8418 67.943359 L 197.33594 64.955078 L 200.8457 57.941406 C 202.15204 55.328725 202.54166 53.269948 202.25586 51.650391 C 201.97005 50.030833 200.90815 48.912101 199.67188 48.5 L 199.67188 48.498047 C 199.3123 48.378191 198.92208 48.307784 198.55078 48.289062 L 198.55078 48.292969 A 0.94497638 0.94497638 0 0 0 198.50586 48.292969 L 183.50586 48.292969 A 0.94497638 0.94497638 0 0 0 183.45898 48.294922 C 183.38884 48.293201 183.31814 48.285379 183.24805 48.287109 z M 186.71094 50.181641 L 198.4375 50.181641 C 198.65679 50.188433 198.87875 50.227806 199.07422 50.292969 C 199.71292 50.50587 200.21354 50.945731 200.39648 51.982422 C 200.57945 53.019116 200.34988 54.712293 199.15625 57.099609 L 197.70508 60.001953 L 194.1582 67.09375 C 193.27922 68.851724 192.89892 70.30259 192.80469 71.574219 L 185.14453 71.574219 A 0.94497638 0.94497638 0 0 0 184.74023 71.597656 A 0.94591962 0.94591962 0 0 0 184.70508 71.607422 A 0.94591962 0.94591962 0 0 0 184.0293 72.71875 C 183.97042 73.534238 183.58517 74.088196 183.01172 74.453125 C 182.38993 74.848808 181.56058 74.962882 180.92188 74.75 C 180.28317 74.537099 179.78451 74.095288 179.60156 73.058594 C 179.41863 72.021903 179.64813 70.330679 180.8418 67.943359 L 185.8457 57.941406 C 187.15204 55.328725 187.54166 53.269948 187.25586 51.650391 C 187.15836 51.097914 186.96512 50.609644 186.71094 50.181641 z M 183.56836 50.191406 C 183.74488 50.205309 183.91454 50.239743 184.07422 50.292969 C 184.61653 50.473738 185.04622 50.843488 185.2793 51.578125 L 181.14453 51.578125 C 181.32627 51.154593 181.61449 50.820432 181.99219 50.580078 C 182.45853 50.283316 183.0388 50.149697 183.56836 50.191406 z M 185.83008 73.464844 L 198.85547 73.464844 C 198.67568 73.884762 198.38861 74.213283 198.01172 74.453125 C 197.60791 74.710092 197.11077 74.859494 196.64062 74.867188 A 0.94497638 0.94497638 0 0 0 196.52734 74.859375 L 185.23047 74.859375 C 185.50639 74.449149 185.71324 73.980986 185.83008 73.464844 z "
       transform="scale(0.26458333)"
       id="path5372" />
    <path
       style="color:#000000;font-style:normal;font-variant:normal;font-weight:normal;font-stretch:normal;font-size:medium;line-height:normal;font-family:sans-serif;font-variant-ligatures:normal;font-variant-position:normal;font-variant-caps:normal;font-variant-numeric:normal;font-variant-alternates:normal;font-feature-settings:normal;text-indent:0;text-align:start;text-decoration:none;text-decoration-line:none;text-decoration-style:solid;text-decoration-color:#000000;letter-spacing:normal;word-spacing:normal;text-transform:none;writing-mode:lr-tb;direction:ltr;text-orientation:mixed;dominant-baseline:auto;baseline-shift:baseline;text-anchor:start;white-space:normal;shape-padding:0;clip-rule:nonzero;display:inline;overflow:visible;visibility:visible;opacity:1;isolation:auto;mix-blend-mode:normal;color-interpolation:sRGB;color-interpolation-filters:linearRGB;solid-color:#000000;solid-opacity:1;vector-effect:none;fill:#000000;fill-opacity:1;fill-rule:nonzero;stroke:none;stroke-width:1.88976383;stroke-linecap:round;stroke-linejoin:round;stroke-miterlimit:4;stroke-dasharray:none;stroke-dashoffset:0;stroke-opacity:1;color-rendering:auto;image-rendering:auto;shape-rendering:auto;text-rendering:auto;enable-background:accumulate"
       d="M 121.92383 50.007812 C 121.12913 50.027466 120.38211 50.270753 119.77344 50.707031 C 118.85108 51.368169 118.27411 52.547841 118.44922 54 A 1.0331806 0.86635782 42.480816 0 0 118.93555 54.972656 A 1.0319542 0.86532941 42.480816 0 0 118.95508 54.988281 A 1.0331806 0.86635782 42.480816 0 0 118.96094 54.990234 A 1.0319542 0.86532941 42.480816 0 0 119.74609 55.1875 L 124.98242 55.1875 C 125.01833 56.140345 124.86151 57.347355 124.38477 58.820312 L 121.15039 68.814453 C 120.30474 71.427138 120.26851 73.483954 120.83984 75.103516 C 121.41122 76.723073 122.67346 77.851571 123.98242 78.263672 C 124.33959 78.376113 124.69833 78.43826 125.05078 78.460938 A 1.0329843 0.86619315 42.480816 0 0 125.2207 78.470703 L 125.375 78.470703 C 125.40561 78.470352 125.43637 78.471701 125.4668 78.470703 L 140.16211 78.470703 L 140.16406 78.474609 C 141.06406 78.510137 141.91282 78.257627 142.59375 77.769531 C 143.52151 77.10452 144.10097 75.920374 143.91602 74.457031 A 1.0319542 0.86532941 42.480816 0 0 143.74023 73.833984 C 143.73608 73.827181 143.7311 73.821256 143.72656 73.814453 A 1.0319542 0.86532941 42.480816 0 0 143.50977 73.576172 C 143.47953 73.550471 143.45209 73.526054 143.41992 73.503906 A 1.0319542 0.86532941 42.480816 0 0 143.16797 73.369141 C 143.14907 73.36196 143.13057 73.355657 143.11133 73.349609 A 1.0319542 0.86532941 42.480816 0 0 142.7793 73.294922 L 137.44336 73.294922 C 137.37763 72.357334 137.4917 71.180152 137.98242 69.664062 L 138.94922 66.675781 L 139.8418 63.921875 C 139.9205 63.871829 139.99966 63.830683 140.07812 63.779297 C 142.51374 62.184242 144.70626 60.145706 146.24219 58.265625 C 147.01015 57.325585 147.61733 56.427568 148.00781 55.599609 C 148.2042 55.1832 148.34857 54.89892 148.41992 54.486328 C 148.55678 54.014972 148.51892 53.347534 148.30273 53.126953 C 148.30008 53.121284 148.30434 53.12292 148.30273 53.119141 C 148.19301 52.954391 148.12586 52.742926 147.74023 52.623047 C 147.51244 52.55271 147.3301 52.590484 147.12305 52.644531 C 146.97795 52.721029 146.9233 52.753517 146.85742 52.828125 C 146.60484 53.040837 146.79549 53.505943 146.52344 53.6875 C 146.29387 53.864382 145.07226 54.49262 141.84375 54.728516 L 141.7832 54.736328 C 141.73881 54.250891 141.66895 53.783549 141.52344 53.371094 C 140.95206 51.751536 139.6937 50.632804 138.38477 50.220703 L 138.38477 50.21875 C 138.00405 50.098901 137.60116 50.028474 137.22656 50.009766 L 137.22656 50.013672 A 1.0319542 0.86532941 42.480816 0 0 137.18164 50.013672 L 122.18164 50.013672 A 1.0319542 0.86532941 42.480816 0 0 122.13477 50.015625 C 122.06435 50.013924 121.99367 50.006301 121.92383 50.007812 z M 125.7207 51.902344 L 137.44727 51.902344 C 137.66776 51.909147 137.89655 51.948513 138.10352 52.013672 C 138.77974 52.226573 139.35692 52.666431 139.72266 53.703125 C 139.86239 54.099236 139.91783 54.635201 139.91602 55.25 C 136.75101 56.514319 133.75035 59.688111 131.25781 62.695312 C 128.27912 66.289042 126.13477 69.759766 126.13477 69.759766 L 128.53711 69.765625 L 132.19531 67.175781 C 132.43485 67.116339 134.66003 66.581262 137.27539 65.339844 L 136.15039 68.814453 C 135.58139 70.572429 135.45594 72.023288 135.58594 73.294922 L 127.92578 73.294922 A 1.0319542 0.86532941 42.480816 0 0 127.52539 73.318359 A 1.0329843 0.86619315 42.480816 0 0 127.49219 73.328125 A 1.0329843 0.86619315 42.480816 0 0 127.01172 74.439453 C 127.09664 75.254962 126.80986 75.8089 126.30078 76.173828 C 125.74876 76.569511 124.9399 76.68357 124.26367 76.470703 C 123.58742 76.257802 123.01028 75.815991 122.64453 74.779297 C 122.27882 73.742606 122.20975 72.051382 122.98242 69.664062 L 126.22266 59.662109 C 127.06831 57.049432 127.0948 54.990648 126.52344 53.371094 C 126.32849 52.818614 126.05037 52.330345 125.7207 51.902344 z M 122.58008 51.912109 C 122.75904 51.926094 122.93444 51.960456 123.10352 52.013672 C 123.67769 52.194447 124.17254 52.56419 124.53516 53.298828 L 120.40039 53.298828 C 120.50746 52.875294 120.73692 52.541137 121.07227 52.300781 C 121.48628 52.004013 122.04316 51.870399 122.58008 51.912109 z M 145.73242 55.644531 C 145.4451 56.106726 145.22022 56.532988 144.78125 57.070312 C 143.382 58.783085 141.29532 60.725464 139.04492 62.199219 C 135.71269 64.381476 131.82169 65.352861 131.61914 65.404297 C 132.16229 64.684425 132.07744 64.662745 132.71094 63.898438 C 135.59238 60.422036 139.38199 56.965383 142.04297 56.603516 C 144.1841 56.438616 144.78186 56.011655 145.73242 55.644531 z M 128.94531 75.185547 L 141.9707 75.185547 C 141.86495 75.605464 141.63538 75.933987 141.30078 76.173828 C 140.94229 76.430798 140.47075 76.580196 140.00195 76.587891 A 1.0319542 0.86532941 42.480816 0 0 139.88867 76.580078 L 128.5918 76.580078 C 128.79536 76.169852 128.91946 75.70169 128.94531 75.185547 z "
       transform="scale(0.26458333)"
       id="path5372-3" />
  </g>
</svg>
