<?xml version="1.0" encoding="UTF-8" standalone="no"?>
<!-- Created with Inkscape (http://www.inkscape.org/) -->

<svg
   xmlns:dc="http://purl.org/dc/elements/1.1/"
   xmlns:cc="http://creativecommons.org/ns#"
   xmlns:rdf="http://www.w3.org/1999/02/22-rdf-syntax-ns#"
   xmlns:svg="http://www.w3.org/2000/svg"
   xmlns="http://www.w3.org/2000/svg"
   xmlns:sodipodi="http://sodipodi.sourceforge.net/DTD/sodipodi-0.dtd"
   xmlns:inkscape="http://www.inkscape.org/namespaces/inkscape"
   width="486.6347"
   height="180"
   viewBox="0 0 128.75543 47.625001"
   version="1.1"
   id="svg4583"
   inkscape:version="0.92.1 r"
   sodipodi:docname="logo.svg">
  <defs
     id="defs4577" />
  <sodipodi:namedview
     id="base"
     pagecolor="#ffffff"
     bordercolor="#666666"
     borderopacity="1.0"
     inkscape:pageopacity="0.0"
     inkscape:pageshadow="2"
     inkscape:zoom="1"
     inkscape:cx="189.90497"
     inkscape:cy="94.447495"
     inkscape:document-units="mm"
     inkscape:current-layer="layer1"
     showgrid="true"
     inkscape:window-width="1920"
     inkscape:window-height="1023"
     inkscape:window-x="0"
     inkscape:window-y="33"
     inkscape:window-maximized="1"
     units="px"
     fit-margin-top="0"
     fit-margin-left="0"
     fit-margin-right="0"
     fit-margin-bottom="0">
    <inkscape:grid
       type="xygrid"
       id="grid4612"
       originx="-1.3229166"
       originy="-248.70837" />
  </sodipodi:namedview>
  <metadata
     id="metadata4580">
    <rdf:RDF>
      <cc:Work
         rdf:about="">
        <dc:format>image/svg+xml</dc:format>
        <dc:type
           rdf:resource="http://purl.org/dc/dcmitype/StillImage" />
        <dc:title></dc:title>
      </cc:Work>
    </rdf:RDF>
  </metadata>
  <g
     inkscape:label="Layer 1"
     inkscape:groupmode="layer"
     id="layer1"
     transform="translate(-1.3229166,-0.66662595)">
    <path
       style="stroke-width:3.99999976"
       d="M 105,2.5195312 A 79.999996,79.999996 0 0 0 25,82.519531 79.999996,79.999996 0 0 0 28.554688,106.09766 39.999998,39.999998 0 0 0 5,142.51953 a 39.999998,39.999998 0 0 0 40,40 h 120 a 59.999999,59.999999 0 0 0 60,-60 A 59.999999,59.999999 0 0 0 183.08594,65.386719 79.999996,79.999996 0 0 0 105,2.5195312 Z M 245.44727,66.591797 c -2.31895,0 -4.51199,0.926053 -6.16993,2.583984 -1.66531,1.665313 -2.58398,3.88065 -2.58398,6.230469 0,2.318944 0.92605,4.506128 2.58398,6.164062 1.65794,1.657936 3.85098,2.589844 6.16993,2.589844 2.34982,0 4.56515,-0.924531 6.23046,-2.589844 1.65794,-1.657934 2.58399,-3.845118 2.58399,-6.164062 0,-2.349819 -0.91868,-4.565156 -2.58399,-6.230469 -1.66531,-1.665309 -3.88064,-2.583984 -6.23046,-2.583984 z M 47.3125,67.527344 H 87.625 c 10.824008,0 18.92758,1.549916 24.39648,5.072265 5.46846,3.480254 8.29688,9.313399 8.29688,16.623047 0,5.323828 -1.71143,10.061436 -5.05664,13.871094 -1.90358,2.1944 -4.36135,3.8425 -7.10938,5.18164 4.57208,1.2219 8.68181,2.88727 11.73047,5.56641 4.51433,3.92546 6.87305,9.22793 6.87305,15.37695 0,8.50526 -3.10521,15.38772 -9.18359,19.92383 -6.03547,4.49257 -14.58684,6.58398 -25.511723,6.58398 h -0.01563 L 65.300781,155.34961 H 47.3125 v -7.02734 l 10.748047,-1.68946 V 76.193359 L 47.3125,74.570312 v -5.035156 z m 26.818359,9.632812 -0.002,27.683594 h 11.685547 c 6.48621,0 10.953732,-1.31433 13.583985,-3.5293 l 0.0078,-0.008 c 2.640389,-2.194603 4.089839,-5.819931 4.089839,-11.46289 0,-4.707001 -1.34218,-7.645347 -3.986323,-9.568359 C 96.878553,78.361782 92.054694,77.160156 85.0625,77.160156 Z M 288.88281,91.025391 c -6.33385,0 -11.6381,1.615969 -15.60547,4.976562 -3.93909,3.329469 -5.95703,8.095857 -5.95703,13.714847 0,3.15513 0.5626,5.98261 1.77149,8.40039 l 0.008,0.008 v 0.008 c 1.18246,2.31764 2.88808,4.29586 5.03516,5.88281 2.23109,1.64908 5.43395,3.07028 9.75,4.48047 l 5.5664,1.81641 c 2.94681,1.00523 5.00592,2.29855 6.28906,3.75781 1.28715,1.46381 1.89063,3.08797 1.89063,5.21094 0,3.06816 -0.81244,4.95949 -2.33203,6.25977 -1.5196,1.30027 -4.03307,2.11132 -7.78906,2.11132 -4.46932,0 -7.84334,-1.22623 -10.53321,-3.54296 l -3.33008,-8.89454 h -6.20117 v 17.82618 l 1.30078,0.48828 c 2.19984,0.82494 5.04481,1.50747 8.6211,2.10351 3.62512,0.63858 6.96451,0.9668 10.01758,0.9668 7.47889,0 13.40441,-1.5449 17.56835,-4.94531 4.2019,-3.39929 6.3125,-8.55079 6.3125,-14.8086 0,-2.80759 -0.406,-5.26598 -1.28515,-7.375 -0.79839,-2.01223 -1.9563,-3.82242 -3.45508,-5.37304 -1.46071,-1.59516 -3.23923,-2.92297 -5.29297,-3.97266 -2.13829,-1.0929 -6.11292,-2.58627 -12.26758,-4.67969 h -0.008 c -3.04907,-1.01635 -5.20012,-2.25932 -6.51172,-3.56445 -1.24293,-1.27564 -1.80859,-2.66976 -1.80859,-4.59961 0,-2.4139 0.66243,-4.01125 1.99414,-5.28516 1.33242,-1.23704 3.33491,-1.96289 6.37695,-1.96289 4.34384,0 7.14473,0.95034 8.84375,2.36133 l 2.8418,7.38867 h 6.32031 V 93.330078 l -1.60937,-0.326172 c -6.54201,-1.3084 -12.02886,-1.976562 -16.52149,-1.976562 z m 49.75391,0 c -6.33125,0 -11.63864,1.618796 -15.60547,4.976562 -3.93909,3.329469 -5.96484,8.095857 -5.96484,13.714847 0,3.15513 0.56259,5.98261 1.77148,8.40039 l 0.008,0.008 v 0.008 c 1.18247,2.31764 2.88809,4.29586 5.03516,5.88281 2.2311,1.64908 5.44177,3.07028 9.75781,4.48047 l 5.5586,1.81641 c 2.9468,1.00523 5.00787,2.29855 6.29101,3.75781 1.28714,1.46381 1.89649,3.08797 1.89649,5.21094 0,3.06816 -0.81244,4.95949 -2.33204,6.25977 -1.51959,1.30027 -4.04088,2.11132 -7.79687,2.11132 -4.46932,0 -7.83553,-1.22623 -10.52539,-3.54296 l -3.33008,-8.89454 h -6.20703 v 17.82618 l 1.29883,0.48828 c 2.19628,0.8236 5.03926,1.50816 8.60742,2.10351 3.63434,0.64136 6.9715,0.9668 10.03125,0.9668 7.48183,0 13.41196,-1.54211 17.57617,-4.94531 l 0.008,-0.008 c 4.19642,-3.39935 6.29688,-8.54706 6.29688,-14.80078 0,-2.80758 -0.39821,-5.26598 -1.27734,-7.375 -0.7984,-2.01224 -1.96216,-3.82241 -3.46094,-5.37304 -1.46071,-1.59515 -3.23338,-2.92298 -5.28711,-3.97266 -2.13829,-1.0929 -6.11293,-2.58627 -12.26758,-4.67969 h -0.008 -0.008 c -3.05317,-1.01773 -5.19867,-2.2652 -6.50976,-3.57226 -1.23932,-1.2742 -1.80859,-2.66463 -1.80859,-4.5918 0,-2.41797 0.67159,-4.01801 2.00781,-5.29297 1.33245,-1.23153 3.3345,-1.95703 6.36914,-1.95703 4.34373,0 7.1369,0.95235 8.83594,2.36328 l 2.84961,7.38867 h 6.3125 V 93.330078 l -1.60938,-0.326172 c -6.542,-1.3084 -12.02104,-1.978515 -16.51367,-1.978515 z m 57.0625,0 c -9.54909,0 -17.0841,2.817841 -22.02149,8.578125 -4.90557,5.723164 -7.23242,13.831114 -7.23242,24.050784 0,10.34089 2.32147,18.53275 7.22657,24.30078 4.91901,5.78442 12.29204,8.64453 21.52539,8.64453 9.54224,0 17.09914,-2.75634 22.12304,-8.4082 5.02386,-5.65187 7.38281,-13.92785 7.38281,-24.53711 0,-10.42451 -2.34828,-18.58221 -7.32421,-24.197269 -4.97084,-5.651799 -12.37865,-8.43164 -21.67969,-8.43164 z m 71.43359,0 c -2.75051,0 -5.93973,0.66936 -9.6914,1.919921 -2.80528,0.903723 -5.37985,2.191271 -7.95118,3.484376 l -0.44921,-3.837891 h -20.53711 v 6.421875 l 7.06445,1.564448 v 46.7793 l -7.06445,1.56446 v 6.42187 h 29.38086 v -6.45898 l -7.93555,-1.56446 V 103.9082 c 4.54983,-0.92188 8.69096,-1.55859 11.81055,-1.55859 3.16459,0 5.05352,0.80952 6.27343,2.27344 l 0.0156,0.0234 0.0156,0.0137 c 1.32435,1.51815 2.06641,3.67814 2.06641,6.80664 v 35.86132 l -7.81055,1.55665 v 6.45898 h 29.31446 v -6.42187 l -7.12305,-1.56446 v -37.01367 c 0,-5.93165 -1.37404,-10.763185 -4.3711,-14.195312 -3.01147,-3.448657 -7.53393,-5.123047 -13.00585,-5.123047 z M 130.80859,92.589844 H 152.6875 V 136.5918 c 0,3.27277 0.75177,5.39907 1.96484,6.70312 1.21307,1.30405 3.06268,2.04492 6.03711,2.04492 4.48103,0 8.57695,-0.67442 12.49805,-1.66796 v -43.02149 l -8.88086,-1.558593 v -6.501953 h 23.19531 v 54.757816 l 7.43946,1.55859 v 6.44336 h -20.9336 l -0.40625,-3.88281 c -2.48286,1.18322 -4.9675,2.36501 -7.94336,3.29297 h -0.008 l -0.008,0.008 c -3.99457,1.20267 -7.40441,1.83008 -10.32617,1.83008 -5.38394,-1e-5 -9.82978,-1.62407 -12.76368,-4.99805 -2.93389,-3.37398 -4.24414,-8.21359 -4.24414,-14.25391 v -36.74804 l -7.5,-1.564457 v -4.435547 z m 100.13477,0.002 V 99.0645 l 8.31055,1.56641 v 46.62305 l -9.99414,1.56445 v 6.52539 h 34.44335 v -6.5332 l -10.06835,-1.55664 V 92.591797 Z m 164.25391,7.439456 c 5.09998,0 8.35725,1.65475 10.6289,5.15234 2.25506,3.47207 3.61719,9.66546 3.61719,18.47071 0,8.97242 -1.38437,15.27053 -3.67578,18.77929 -2.32195,3.55545 -5.56603,5.21875 -10.57031,5.21875 -4.87919,0 -7.96413,-1.57692 -10.11329,-4.93164 -2.08108,-3.35087 -3.38085,-9.78162 -3.38086,-19.0664 0,-9.16044 1.28775,-15.48774 3.32227,-18.75 2.09889,-3.29575 5.19711,-4.87305 10.17188,-4.87305 z M 74.130859,114.47656 v 31.27735 c 5.188608,0.19918 10.578015,0.33984 16.373047,0.33984 6.83534,0 11.652634,-1.44981 14.689454,-4.01563 3.01692,-2.59098 4.62109,-6.60533 4.62109,-12.60937 0,-5.42985 -1.65237,-8.90361 -5.01172,-11.22656 h -0.008 l -0.008,-0.008 c -3.35072,-2.35264 -9.246098,-3.75782 -17.658204,-3.75782 z"
       transform="scale(0.26458333)"
       id="path12"
       inkscape:connector-curvature="0" />
  </g>
</svg>
